<svg xmlns="http://www.w3.org/2000/svg" viewBox="0 0 64 64" fill="none">
  <defs>
    <linearGradient id="g-mark" x1="0" y1="0" x2="0" y2="64" gradientUnits="userSpaceOnUse">
      <stop offset="0" stop-color="#FFE9A8"/>
      <stop offset="0.3" stop-color="#F5C842"/>
      <stop offset="0.7" stop-color="#E6A817"/>
      <stop offset="1" stop-color="#C88A00"/>
    </linearGradient>
    <linearGradient id="g-mark-shadow" x1="0" y1="0" x2="0" y2="64" gradientUnits="userSpaceOnUse">
      <stop offset="0" stop-color="#1a1305"/>
      <stop offset="1" stop-color="#0a0700"/>
    </linearGradient>
  </defs>
  <!-- chamfered shield: TR + BL corners cut -->
  <path d="M0 0 H50 L64 14 V64 H14 L0 50 Z" fill="url(#g-mark)"/>
  <!-- inset darker shield -->
  <path d="M5 5 H47 L59 17 V59 H17 L5 47 Z" fill="url(#g-mark-shadow)"/>
  <!-- AT monogram lockup -->
  <g fill="url(#g-mark)">
    <!-- A -->
    <path d="M14 44 L21 20 H27 L34 44 H29 L27.6 39 H20.4 L19 44 Z M21.5 34 H26.5 L24 25.5 Z"/>
    <!-- T (with chamfer wink at top right) -->
    <path d="M36 20 H54 V25 H47.5 V44 H42.5 V25 H36 Z"/>
  </g>
  <!-- accent angular slash -->
  <path d="M50 0 L64 14 L60 18 L46 4 Z" fill="#FCD34D" opacity="0.85"/>
</svg>
